HIERARCHY
ROOT reference
{
	OFFSET 0.000000 0.000000 0.000000
	CHANNELS 6 Xposition Yposition Zposition Xrotation Yrotation Zrotation
	JOINT root
	{
		OFFSET 0.000000 89.865501 0.000000
		CHANNELS 3 Xrotation Yrotation Zrotation
		JOINT Hips
		{
			OFFSET 0.000000 0.000000 0.000000
			CHANNELS 3 Xrotation Yrotation Zrotation
			JOINT Spine
			{
				OFFSET 0.013595 -0.105476 -0.026468
				CHANNELS 3 Xrotation Yrotation Zrotation
				JOINT Spine1
				{
					OFFSET -5.027490 17.193298 4.853540
					CHANNELS 3 Xrotation Yrotation Zrotation
					JOINT Spine2
					{
						OFFSET -6.489570 17.043396 3.457120
						CHANNELS 3 Xrotation Yrotation Zrotation
						JOINT Neck
						{
							OFFSET -8.669389 15.586197 5.140711
							CHANNELS 3 Xrotation Yrotation Zrotation
							JOINT Head
							{
								OFFSET -6.523941 8.554840 4.152531
								CHANNELS 3 Xrotation Yrotation Zrotation
								End Site
								{
									OFFSET 0.000000 0.100006 0.000000
								}
							}
						}
						JOINT RightShoulder
						{
							OFFSET -11.633700 14.542206 3.299611
							CHANNELS 3 Xrotation Yrotation Zrotation
							JOINT RightArm
							{
								OFFSET -12.870399 -8.032135 -5.333399
								CHANNELS 3 Xrotation Yrotation Zrotation
								JOINT RightForearm
								{
									OFFSET -25.966297 -13.786201 -0.595394
									CHANNELS 3 Xrotation Yrotation Zrotation
									JOINT RightHand
									{
										OFFSET -20.889801 -1.519997 13.516900
										CHANNELS 3 Xrotation Yrotation Zrotation
										End Site
										{
											OFFSET 0.000000 0.099998 0.000000
										}
									}
								}
							}
						}
						JOINT LeftShoulder
						{
							OFFSET -5.713750 16.618195 6.992721
							CHANNELS 3 Xrotation Yrotation Zrotation
							JOINT LeftArm
							{
								OFFSET 14.245000 3.247314 6.718699
								CHANNELS 3 Xrotation Yrotation Zrotation
								JOINT LeftForearm
								{
									OFFSET 23.957703 -14.592697 -8.817422
									CHANNELS 3 Xrotation Yrotation Zrotation
									JOINT LeftHand
									{
										OFFSET 7.512070 -21.311096 10.526401
										CHANNELS 3 Xrotation Yrotation Zrotation
										End Site
										{
											OFFSET 0.000000 0.099998 0.000000
										}
									}
								}
							}
						}
					}
				}
			}
			JOINT RightUpLeg
			{
				OFFSET -8.373450 -0.383102 -4.593220
				CHANNELS 3 Xrotation Yrotation Zrotation
				JOINT RightLeg
				{
					OFFSET -19.962399 -39.044800 10.208002
					CHANNELS 3 Xrotation Yrotation Zrotation
					JOINT RightFoot
					{
						OFFSET -1.150249 -40.875301 -4.843669
						CHANNELS 3 Xrotation Yrotation Zrotation
						JOINT RightToe
						{
							OFFSET -13.504299 -6.853470 9.736690
							CHANNELS 3 Xrotation Yrotation Zrotation
							End Site
							{
								OFFSET 0.000000 0.100000 0.000000
							}
						}
					}
				}
			}
			JOINT LeftUpLeg
			{
				OFFSET 8.373440 0.383102 4.593220
				CHANNELS 3 Xrotation Yrotation Zrotation
				JOINT LeftLeg
				{
					OFFSET 13.250099 -42.687302 5.424698
					CHANNELS 3 Xrotation Yrotation Zrotation
					JOINT LeftFoot
					{
						OFFSET 12.331402 -37.688301 -11.095001
						CHANNELS 3 Xrotation Yrotation Zrotation
						JOINT LeftToe
						{
							OFFSET -0.239304 -7.519040 16.356800
							CHANNELS 3 Xrotation Yrotation Zrotation
							End Site
							{
								OFFSET 0.000000 0.100000 0.000000
							}
						}
					}
				}
			}
		}
	}
}
MOTION
Frames: 11
Frame Time: 0.041667
0.000000 0.000000 0.000000 -0.000000 0.000000 -0.000000 -0.000000 -0.000001 -0.000000 0.000002 -0.000003 -0.000001 0.000002 -0.000004 -0.000002 -0.000001 -0.000001 0.000002 0.000001 -0.000004 0.000008 0.000000 0.000000 -0.000004 0.000002 -0.000001 -0.000003 0.000003 0.000002 -0.000009 -0.000001 0.000001 -0.000007 0.000002 -0.000004 0.000001 0.000003 0.000012 -0.000003 0.000000 0.000004 -0.000001 -0.000000 0.000001 0.000001 -0.000008 0.000003 -0.000003 0.000002 -0.000000 0.000004 -0.000005 -0.000008 0.000003 0.000001 -0.000002 0.000004 -0.000002 -0.000001 0.000004 -0.000001 0.000004 0.000000 0.000004 0.000003 -0.000001 0.000003 0.000005 0.000002 0.000001 -0.000000 0.000001 -0.000002 -0.000000 -0.000000 
0.000000 0.000000 0.000000 -0.000000 0.000000 -0.000000 -0.000000 -0.000001 -0.000000 0.000002 -0.000003 -0.000001 0.000002 -0.000004 -0.000002 -0.000001 -0.000001 0.000002 0.000001 -0.000004 0.000008 0.000000 0.000000 -0.000004 0.000002 -0.000001 -0.000003 0.000003 0.000002 -0.000009 -0.000001 0.000001 -0.000007 0.000002 -0.000004 0.000001 0.000003 0.000012 -0.000003 0.000000 0.000004 -0.000001 -0.000000 0.000001 0.000001 -0.000008 0.000003 -0.000003 0.000002 -0.000000 0.000004 -0.000005 -0.000008 0.000003 0.000001 -0.000002 0.000004 -0.000002 -0.000001 0.000004 -0.000001 0.000004 0.000000 0.000004 0.000003 -0.000001 0.000003 0.000005 0.000002 0.000001 -0.000000 0.000001 -0.000002 -0.000000 -0.000000 
0.000000 0.000000 0.000000 -0.000000 0.000000 -0.000000 0.547463 0.843984 0.305404 -0.094052 -0.065276 0.177024 -0.021728 0.012457 -0.258337 -0.141440 -0.063386 -0.140257 -0.090017 -0.052556 -0.096601 0.107008 -0.003688 0.218749 0.019293 -0.086887 0.415631 0.877648 -0.925719 -1.364588 -3.637984 -0.360892 0.859014 -1.166217 2.341269 -1.566417 -0.709964 1.469390 -0.790082 0.267139 -0.339379 -0.254133 -2.454782 -0.077471 1.210813 -1.694409 -1.525958 -1.980773 -0.184557 0.766522 -0.754427 -0.360345 -0.530532 -0.122339 -0.006737 0.001201 -0.008572 -0.091357 -0.076433 -0.213798 -0.001679 -0.000223 0.005793 0.983760 -0.321116 -0.066021 -3.276992 -1.028995 -0.160001 1.963518 0.817806 -0.401488 -0.063737 -0.001704 -0.076374 
0.000000 0.000000 0.000000 -0.000000 0.000000 -0.000000 2.864706 0.836094 1.606930 -0.914895 -0.653883 1.733964 -0.514085 1.056238 -0.708241 -1.137652 0.679714 -0.394097 -0.817134 0.377324 -0.273781 0.315480 0.302270 0.251634 0.491124 0.521014 0.765439 2.034949 -1.302770 -4.158705 -9.977982 0.186117 2.432479 -3.950329 8.650079 -5.493700 -4.508000 4.729592 -2.034573 0.949043 -0.671790 -1.257008 -7.614739 -0.125356 4.343263 -5.315773 -4.447755 -6.164553 -0.767853 2.535810 -2.373836 -0.361405 0.799119 -1.219607 -2.672599 0.560453 -3.406160 0.682585 -0.729335 2.775602 1.242219 -0.059487 -0.927947 5.162743 1.139113 -2.055590 -14.988746 -4.579895 -1.201572 9.522285 3.802529 -2.857559 -0.390315 -0.010634 1.125860 
0.000000 0.000000 0.000000 -0.000000 0.000000 -0.000000 6.661870 -4.107505 4.215617 -2.623352 -1.992306 5.051060 -0.475323 4.139236 -1.051589 -1.439531 3.165995 -0.744992 -1.204850 2.037913 -0.503110 -0.350825 0.739234 0.072967 -0.284167 1.685319 0.295826 0.891804 1.081039 -3.911708 -0.576102 7.533534 6.225892 -4.640948 10.401417 -6.521825 -7.119441 13.944390 1.503892 0.309914 0.608229 -0.976470 -13.778265 1.223276 6.488912 -10.147107 -7.700577 -11.663508 -2.567842 5.729726 -4.222974 6.387186 6.755013 2.041478 -18.252675 7.453364 -23.863568 9.952391 -1.693856 15.498143 3.996368 -0.277888 -3.215978 8.945836 -0.142213 -4.908076 -21.453602 -6.411328 -2.075969 17.724713 7.915925 -16.268870 -4.605377 -0.078955 9.506069 
0.000000 0.000000 0.000000 -0.000000 0.000000 -0.000000 9.354271 -7.797306 6.273624 -3.380265 -2.638037 6.558489 0.264308 5.711806 -1.166388 -0.669508 4.210211 -0.574303 -0.761506 2.801383 -0.364615 -0.646646 0.427730 0.824286 -1.448190 0.933060 1.215967 1.004241 1.146662 -4.301808 30.362131 24.857066 7.937180 2.881516 -5.169419 3.730377 3.144024 19.485529 9.354621 0.523730 0.501089 -1.287643 -20.579164 5.382293 10.518498 -17.556964 -11.458181 -19.969342 -3.429426 8.258745 -6.397353 5.239700 11.156194 -1.098072 -18.250957 7.452188 -23.861175 9.768490 -1.432250 15.019101 -0.079775 -0.011155 0.274528 10.570908 -6.698408 -3.097857 -21.511447 -6.427182 -2.084696 21.520007 9.574309 -26.048245 -2.555521 1.572145 12.964769 
0.000000 0.000000 0.000000 -0.000000 0.000000 -0.000000 10.433519 -7.832265 7.058072 -3.453551 -2.702414 6.705811 0.487140 5.935644 -1.009952 -0.482488 4.227897 -0.131988 -0.635458 2.824797 -0.059409 -0.698413 -0.041590 0.691152 -1.572897 0.112784 0.738682 1.294723 0.978062 -4.890418 43.463168 34.857987 6.729210 9.283229 -14.233850 11.549663 -6.702062 14.495639 19.560260 0.693356 0.473195 -1.572190 -23.182096 4.807838 12.376235 -21.133283 -12.803761 -23.939624 -2.543387 7.894663 -7.757957 4.079232 11.150492 -1.610149 -18.252656 7.450204 -23.863597 9.626789 -1.194035 15.575066 -0.229463 -0.010719 0.463859 9.991431 -6.119819 -2.800276 -21.457295 -6.412371 -2.076538 20.987541 9.004849 -22.652905 -0.024293 0.584922 3.547825 
0.000000 0.000000 0.000000 -0.000000 0.000000 -0.000000 12.428287 -4.645945 8.348234 -3.293279 -2.562104 6.383949 0.703231 4.927572 -0.379747 -0.235929 2.554270 1.176986 -0.348573 1.701225 0.820217 -1.716330 -0.448077 -0.183315 -2.832545 -0.156835 -1.636034 1.049466 0.873067 -4.090831 63.294755 42.375583 6.840054 11.198524 -16.440335 13.805970 -21.998750 9.347572 29.024401 0.714132 1.274684 -2.153570 -29.144581 3.004131 16.061477 -27.266545 -14.477498 -30.710119 -2.161988 8.760369 -9.759126 0.637316 7.874234 -1.925038 -18.241289 7.448081 -23.848010 9.882185 -0.205679 15.157797 -0.157221 -0.022332 0.541192 5.464092 -1.302517 -4.158579 -21.432331 -6.405508 -2.072770 20.948981 9.262249 -21.465041 0.780378 0.031156 -0.419906 
0.000000 0.000000 0.000000 -0.000000 0.000000 -0.000000 13.208504 -2.352601 10.028337 -2.869225 -2.198326 5.537970 1.278324 3.667866 0.113237 0.449825 1.203436 2.369750 0.204282 0.822897 1.627101 -2.783959 -0.413904 -0.796860 -4.232453 0.286231 -3.356983 1.661545 0.611796 -5.443477 76.277114 47.615605 2.770440 11.453887 -16.719765 14.104676 -31.472723 8.486914 31.675429 0.745615 1.687568 -2.490760 -35.561199 1.329362 17.338920 -30.928077 -15.119360 -34.736279 -4.124242 11.958971 -10.407732 -1.700788 5.567626 -3.235234 -18.242221 7.446394 -23.849327 10.441657 0.781130 14.144041 -0.219648 -0.031626 0.756230 2.275839 4.887560 -7.251312 -21.441769 -6.408108 -2.069604 17.875783 7.346122 -16.048038 -3.371324 -0.029015 6.185572 
0.000000 0.000000 0.000000 -0.000000 0.000000 -0.000000 13.526883 -2.204361 12.497999 -1.896026 -1.403017 3.625309 1.842087 2.569371 0.266962 0.915464 1.012453 3.168492 0.527101 0.715129 2.173595 -3.388130 -0.327048 -1.045138 -5.081166 0.638052 -4.084335 1.656638 0.727910 -5.569454 77.845005 45.598439 2.713478 10.643008 -15.820837 13.154575 -34.986486 7.827700 32.124412 0.599001 1.780362 -2.294072 -37.042319 0.668502 16.090237 -33.807845 -15.444716 -37.897684 -3.314820 10.849375 -10.776979 -3.598044 5.292241 -4.932053 -18.235309 7.445196 -23.839863 10.714740 1.162084 14.303105 -0.288371 -0.042123 0.993165 0.346812 5.798206 -8.728699 -21.394418 -6.395103 -2.067054 13.118596 5.258017 -8.158565 -0.076634 0.007164 0.333986 
0.000000 0.000000 0.000000 -0.000000 0.000000 -0.000000 13.255624 -2.595119 13.243432 -1.405625 -1.022168 2.675596 2.095268 2.026412 0.203435 1.124333 1.044444 3.315151 0.664932 0.748421 2.276186 -3.438838 -0.179454 -0.987584 -5.177558 0.916737 -3.939461 1.675975 0.601748 -5.470234 71.328458 41.822102 5.934220 9.940248 -15.013348 12.327081 -31.732294 9.542656 30.355034 0.685755 1.451858 -2.223840 -36.196249 0.360432 15.586732 -34.764481 -15.518400 -38.947368 -2.038931 9.465466 -11.065221 -4.110287 5.119157 -5.401597 -18.216342 7.444203 -23.813950 10.522426 1.383976 15.211045 -0.324420 -0.047745 1.117472 0.013942 4.963914 -8.695679 -21.394415 -6.395104 -2.067057 13.041592 5.361598 -6.050976 -1.049062 -0.012463 -1.430300 
